:SAMPLES-PER-SECOND 30
:FULLY-SPECIFIED
:DEGREES
169
root  48.6438 37.0204 0.890598 11.1501 38.9154 13.4329
RightUpLeg  -38.2159 -27.2939 8.93297
RightLeg  18.598 -10.3584 0.560847
RightFoot  5.7957 4.11026 -26.3965
RightToes  0.00048216 0.542163 -0.142577
Spine  42.687 -5.75702 10.2381
Spine1  13.8007 -3.19473 2.44363
HEad  -5.05982 -14.372 1.71796
LeftShoulder1  10.6222 -18.7058 -41.4562
LeftArm  -11.9475 -24.4153 -19.3306
LeftForeArm  -7.17603 -37.577 -9.03669
LeftHand  -0.25398 0.0180481 5.50724
RightShoulder  4.19969 10.2329 24.4339
RightArm  -2.72604 22.0299 27.5577
RightForeArm  -47.77 56.5827 20.1734
RightHand  -0.569248 -2.01849 -19.2492
LeftUpLeg  -25.7259 36.2072 -19.7472
LeftLeg  56.9628 7.89406 13.2478
LeftFoot  -1.32283 0.00199524 -0.509164
LeftToes  1.06243e-005 4.65856e-005 -8.18505e-006
170
root  49.6258 36.5837 1.0628 9.63845 36.4885 9.11387
RightUpLeg  -45.3802 -31.9888 18.635
RightLeg  25.5959 -1.5093 -1.61263
RightFoot  3.10041 3.13713 -24.1698
RightToes  0.00048216 0.542163 -0.142577
Spine  45.5931 -6.21192 13.425
Spine1  13.8408 -2.10336 1.66187
HEad  -8.19289 -14.3007 2.11321
LeftShoulder1  10.4969 -19.38 -39.5989
LeftArm  -14.2682 -29.4325 -19.5249
LeftForeArm  -7.21253 -34.6534 -8.16853
LeftHand  -0.25398 0.0180481 5.50724
RightShoulder  4.29034 11.3658 22.6106
RightArm  -3.46816 27.9123 26.6662
RightForeArm  -51.7271 50.1708 16.1358
RightHand  -0.630067 -1.23511 -17.3835
LeftUpLeg  -36.4533 36.8914 -18.4374
LeftLeg  67.9928 5.04988 14.1752
LeftFoot  8.16152 -0.711543 3.96934
LeftToes  1.06243e-005 4.65856e-005 -8.18505e-006
171
root  50.5091 36.3906 1.21394 9.83362 34.6884 6.85688
RightUpLeg  -47.2054 -29.8998 19.1525
RightLeg  29.1414 -2.15399 -1.54496
RightFoot  1.40663 2.54627 -22.4131
RightToes  0.00048216 0.542163 -0.142577
Spine  48.7717 -6.44993 14.4256
Spine1  14.1877 -1.69838 1.9235
HEad  -11.173 -13.869 3.03586
LeftShoulder1  10.102 -20.0708 -36.6873
LeftArm  -17.9174 -34.3597 -19.7316
LeftForeArm  -7.44137 -31.4578 -7.30494
LeftHand  -0.25398 0.0180481 5.50724
RightShoulder  4.35332 12.4494 20.9333
RightArm  -4.74639 34.4225 25.2909
RightForeArm  -53.5209 43.6278 13.0808
RightHand  -0.560448 -0.955199 -14.5149
LeftUpLeg  -45.2199 35.6092 -17.9632
LeftLeg  73.1636 2.95504 12.0602
LeftFoot  9.68264 -1.28086 6.63268
LeftToes  1.06243e-005 4.65856e-005 -8.18505e-006
172
root  51.369 36.5083 1.34938 11.752 33.3724 6.94644
RightUpLeg  -48.6828 -29.0009 18.6066
RightLeg  30.0286 -1.45532 -1.1603
RightFoot  0.898416 2.46631 -22.6096
RightToes  0.00048216 0.542163 -0.142577
Spine  52.0657 -6.65581 13.8568
Spine1  14.0525 -1.48317 1.92627
HEad  -14.1035 -13.691 4.42092
LeftShoulder1  9.84268 -21.0693 -33.9285
LeftArm  -21.7036 -39.2921 -18.4062
LeftForeArm  -8.2975 -28.0599 -6.48692
LeftHand  -0.25398 0.0180481 5.50724
RightShoulder  4.3519 13.1784 19.6429
RightArm  -7.50137 39.971 23.066
RightForeArm  -53.2436 38.3657 11.1209
RightHand  -0.467889 -0.656584 -11.4187
LeftUpLeg  -51.0961 32.6681 -18.0646
LeftLeg  72.1294 2.64746 10.1841
LeftFoot  6.0964 -1.01022 6.27299
LeftToes  1.06243e-005 4.65856e-005 -8.18505e-006
173
root  52.2319 36.6369 1.49949 14.3489 31.6763 7.71824
RightUpLeg  -50.5267 -27.1011 16.9719
RightLeg  31.1733 -1.59546 -1.29566
RightFoot  0.634401 2.3132 -21.7055
RightToes  0.00048216 0.542163 -0.142577
Spine  55.1295 -6.69861 13.1171
Spine1  13.704 -1.00028 1.28647
HEad  -17.1322 -13.9714 5.79402
LeftShoulder1  9.81183 -22.4655 -31.6344
LeftArm  -26.0693 -44.0138 -15.07
LeftForeArm  -9.19538 -24.8586 -5.78316
LeftHand  -0.25398 0.0180481 5.50724
RightShoulder  4.22661 13.5407 18.2516
RightArm  -12.1386 44.3663 20.0728
RightForeArm  -52.0053 34.4547 9.85414
RightHand  -0.416771 0.0207964 -8.97081
LeftUpLeg  -54.6004 29.5461 -17.5068
LeftLeg  66.191 3.51372 9.36819
LeftFoot  2.56788 -0.526454 4.21906
LeftToes  1.06243e-005 4.65856e-005 -8.18505e-006
174
root  53.0943 36.7259 1.66816 16.9624 29.7241 8.24754
RightUpLeg  -52.5347 -24.9658 15.2884
RightLeg  32.4326 -1.90001 -1.55429
RightFoot  0.379144 2.02782 -19.5144
RightToes  0.00048216 0.542163 -0.142577
Spine  57.7935 -6.49241 12.2453
Spine1  13.6226 -0.450456 0.729164
HEad  -19.8793 -14.2404 6.87463
LeftShoulder1  9.6917 -23.8099 -29.2757
LeftArm  -32.4572 -48.1442 -10.2155
LeftForeArm  -9.18653 -21.895 -5.19807
LeftHand  -0.25398 0.0180481 5.50724
RightShoulder  3.91348 13.6197 16.1392
RightArm  -17.725 48.4061 16.8205
RightForeArm  -50.5531 31.0509 8.84854
RightHand  -0.380727 0.943658 -7.10036
LeftUpLeg  -56.3125 26.8282 -16.1122
LeftLeg  56.671 4.78719 8.33098
LeftFoot  1.10279 -0.362538 3.27603
LeftToes  1.06243e-005 4.65856e-005 -8.18505e-006
175
root  53.9397 36.8084 1.8329 19.5796 28.0312 8.39908
RightUpLeg  -54.6486 -23.5163 14.399
RightLeg  33.0154 -1.48922 -1.29614
RightFoot  0.300841 1.88516 -18.2888
RightToes  0.00048216 0.542163 -0.142577
Spine  60.1894 -6.17908 11.1039
Spine1  13.7971 -0.115595 0.639422
HEad  -21.9541 -13.94 7.70823
LeftShoulder1  9.26475 -24.6158 -26.6538
LeftArm  -40.9693 -51.4563 -3.92275
LeftForeArm  -8.53825 -18.9005 -4.58382
LeftHand  -0.25398 0.0180481 5.50724
RightShoulder  3.46972 13.6069 13.3202
RightArm  -23.3548 52.3307 13.3866
RightForeArm  -48.9175 27.7428 7.93573
RightHand  -0.335611 2.06952 -5.44638
LeftUpLeg  -56.5465 24.1528 -13.9475
LeftLeg  44.4987 5.09858 5.8087
LeftFoot  0.436972 -0.203163 1.90973
LeftToes  1.06243e-005 4.65856e-005 -8.18505e-006
